<svg width="1440" height="980" viewBox="0 0 1440 980" fill="none" xmlns="http://www.w3.org/2000/svg">
<path d="M1491.43 148.21C1491.51 148.169 1491.57 148.109 1491.61 148.035C1491.66 147.961 1491.68 147.876 1491.68 147.79V88.3905C1491.68 88.3028 1491.66 88.2163 1491.62 88.1405C1491.57 88.0647 1491.51 88.0025 1491.43 87.9604L1440.43 58.4604V-0.659546C1440.43 -0.789505 1440.38 -0.914085 1440.29 -1.00598C1440.19 -1.09788 1440.07 -1.14954 1439.94 -1.14954H1439.84C1439.76 -1.15085 1439.67 -1.13023 1439.6 -1.0896L1388.39 28.3405L1337.39 -1.11951C1337.28 -1.16022 1337.16 -1.1806 1337.04 -1.17957C1336.91 -1.17957 1336.79 -1.12791 1336.69 -1.03601C1336.6 -0.944115 1336.55 -0.819534 1336.55 -0.689575V58.4805L1285.64 87.8405L1234.48 58.2804C1234.41 58.2364 1234.32 58.2133 1234.24 58.2133C1234.15 58.2133 1234.06 58.2364 1233.99 58.2804L1182.84 87.8204L1131.59 58.2605C1131.52 58.2165 1131.43 58.1932 1131.35 58.1932C1131.26 58.1932 1131.17 58.2165 1131.1 58.2605L1079.94 87.8204L1028.79 58.2605C1028.72 58.2165 1028.63 58.1932 1028.55 58.1932C1028.46 58.1932 1028.37 58.2165 1028.3 58.2605L977.53 87.5905V28.8905C977.531 28.8042 977.509 28.7191 977.467 28.6438C977.425 28.5685 977.364 28.5053 977.29 28.4604L926.67 -0.659546L977.34 -29.9396C977.409 -29.9816 977.466 -30.0402 977.506 -30.1101C977.546 -30.18 977.568 -30.259 977.57 -30.3396V-89.7395C977.568 -89.804 977.552 -89.8675 977.525 -89.9259C977.497 -89.9843 977.458 -90.0366 977.41 -90.0796C977.386 -90.1117 977.359 -90.1418 977.33 -90.1696L925.83 -119.77C925.758 -119.814 925.675 -119.837 925.59 -119.837C925.505 -119.837 925.422 -119.814 925.35 -119.77L874.19 -90.3096L823.03 -119.77C822.958 -119.814 822.875 -119.837 822.79 -119.837C822.705 -119.837 822.622 -119.814 822.55 -119.77L771.29 -90.3096L720.13 -119.77C720.058 -119.814 719.975 -119.837 719.89 -119.837C719.805 -119.837 719.722 -119.814 719.65 -119.77L668.49 -90.3096L617.33 -119.77C617.258 -119.814 617.175 -119.837 617.09 -119.837C617.005 -119.837 616.922 -119.814 616.85 -119.77L565.59 -90.3096L514.43 -119.77C514.358 -119.814 514.275 -119.837 514.19 -119.837C514.105 -119.837 514.022 -119.814 513.95 -119.77L462.84 -90.3795L411.58 -119.84C411.508 -119.884 411.425 -119.907 411.34 -119.907C411.255 -119.907 411.172 -119.884 411.1 -119.84L359.94 -90.3795L308.78 -119.84C308.708 -119.884 308.625 -119.907 308.54 -119.907C308.455 -119.907 308.372 -119.884 308.3 -119.84L257.14 -90.3795L205.84 -119.84C205.768 -119.884 205.685 -119.907 205.6 -119.907C205.515 -119.907 205.432 -119.884 205.36 -119.84L154.15 -90.3495L102.94 -119.94C102.866 -119.984 102.781 -120.007 102.695 -120.007C102.609 -120.007 102.524 -119.984 102.45 -119.94L51.3001 -90.3795L0.130077 -119.84C0.0578232 -119.884 -0.0252266 -119.907 -0.109921 -119.907C-0.194614 -119.907 -0.277668 -119.884 -0.349922 -119.84L-51.7499 -90.2395C-51.8047 -90.2094 -51.8498 -90.1643 -51.8799 -90.1095H-51.9299C-51.9299 -90.1095 -51.9299 -90.1096 -51.9299 -90.0496C-51.9571 -89.9895 -51.974 -89.9252 -51.9799 -89.8595V-30.4596C-51.9797 -30.3736 -51.9564 -30.2892 -51.9124 -30.2153C-51.8684 -30.1414 -51.8054 -30.0807 -51.7299 -30.0396L-0.579922 -0.479492V58.3505L-51.7299 87.9104C-51.8069 87.9524 -51.8709 88.0148 -51.915 88.0906C-51.959 88.1664 -51.9815 88.2528 -51.9799 88.3405V147.74C-51.9797 147.826 -51.9564 147.911 -51.9124 147.985C-51.8684 148.059 -51.8054 148.119 -51.7299 148.16L-0.579922 177.62V236.74C-0.579674 236.825 -0.55743 236.909 -0.515362 236.982C-0.473293 237.056 -0.412842 237.117 -0.33992 237.16L51.0701 266.86C51.143 266.903 51.2255 266.927 51.3101 266.93C51.3978 266.927 51.4835 266.903 51.5601 266.86L102.69 237.34L153.84 266.91C153.917 266.953 154.002 266.977 154.09 266.98C154.178 266.976 154.263 266.952 154.34 266.91L205.59 237.34L256.59 266.82V325.59L205.53 355.1C205.41 355.111 205.298 355.166 205.216 355.255C205.135 355.343 205.09 355.46 205.09 355.58V414.691L153.93 444.25C153.856 444.295 153.796 444.359 153.753 444.434C153.711 444.509 153.69 444.594 153.69 444.681V503.681L102.43 533.29C102.356 533.335 102.296 533.398 102.253 533.474C102.211 533.549 102.19 533.634 102.19 533.72V592.83L51.2801 622.25L0.130077 592.76C0.0559311 592.716 -0.028698 592.693 -0.114922 592.693C-0.201145 592.693 -0.285774 592.716 -0.359921 592.76L-51.7499 622.461C-51.8269 622.503 -51.8909 622.565 -51.935 622.641C-51.979 622.716 -52.0015 622.803 -51.9999 622.891V682.191C-51.9997 682.277 -51.9764 682.361 -51.9324 682.435C-51.8884 682.509 -51.8254 682.569 -51.7499 682.61L-0.599922 712.171V771L-51.7499 800.56C-51.8269 800.602 -51.8909 800.665 -51.935 800.741C-51.979 800.816 -52.0015 800.903 -51.9999 800.99V860.391C-51.9997 860.477 -51.9764 860.561 -51.9324 860.635C-51.8884 860.709 -51.8254 860.769 -51.7499 860.81L-0.359921 890.51C-0.283367 890.553 -0.197647 890.577 -0.109921 890.58C-0.0253525 890.577 0.0571251 890.553 0.130077 890.51C0.215305 890.464 0.282276 890.39 0.32008 890.3L51.2001 860.901L102.2 890.27V949.391C102.2 949.475 102.223 949.559 102.265 949.632C102.307 949.706 102.367 949.767 102.44 949.81L153.84 979.51C153.917 979.553 154.002 979.577 154.09 979.58C154.178 979.576 154.263 979.552 154.34 979.51L205.59 949.951L256.75 979.51C256.823 979.553 256.906 979.577 256.99 979.58C257.078 979.577 257.164 979.553 257.24 979.51L308.39 949.951L359.64 979.51C359.717 979.553 359.802 979.577 359.89 979.58C359.975 979.577 360.057 979.553 360.13 979.51L411.29 949.951L462.44 979.51C462.517 979.553 462.602 979.577 462.69 979.58C462.775 979.577 462.857 979.553 462.93 979.51L514.34 949.81C514.413 949.767 514.473 949.706 514.516 949.632C514.558 949.559 514.58 949.475 514.58 949.391V890.34L565.5 860.911L616.75 890.421C616.858 890.465 616.973 890.488 617.09 890.49C617.167 890.486 617.242 890.466 617.31 890.431L668.31 860.88C668.41 860.916 668.52 860.916 668.62 860.88C668.708 860.842 668.783 860.779 668.836 860.7C668.889 860.62 668.919 860.526 668.92 860.431V801.151L720.07 771.651C720.146 771.609 720.209 771.549 720.253 771.475C720.297 771.401 720.32 771.316 720.32 771.23V712.11L771.47 682.651C771.546 682.609 771.609 682.549 771.653 682.475C771.697 682.401 771.72 682.316 771.72 682.23V623.11L822.63 593.691L873.84 623.211C873.917 623.254 874.002 623.277 874.09 623.28C874.178 623.276 874.263 623.252 874.34 623.211L925.59 593.651L976.75 623.211C976.823 623.253 976.906 623.277 976.99 623.28C977.078 623.277 977.164 623.254 977.24 623.211L1028.39 593.651L1079.39 623.07V682.191C1079.39 682.275 1079.41 682.359 1079.45 682.432C1079.5 682.506 1079.56 682.567 1079.63 682.61L1130.79 712.171V771.171C1130.79 771.257 1130.81 771.341 1130.86 771.415C1130.9 771.489 1130.96 771.549 1131.04 771.59L1182.29 801.211V860.37C1182.29 860.456 1182.31 860.541 1182.36 860.615C1182.4 860.689 1182.46 860.749 1182.54 860.79L1233.54 890.25V949.37C1233.54 949.455 1233.56 949.539 1233.6 949.612C1233.65 949.686 1233.71 949.747 1233.78 949.79L1285.28 979.49C1285.36 979.533 1285.44 979.557 1285.53 979.56C1285.62 979.556 1285.7 979.532 1285.78 979.49L1336.93 949.931L1388.08 979.49C1388.16 979.533 1388.24 979.557 1388.33 979.56C1388.41 979.557 1388.5 979.533 1388.57 979.49L1440.07 949.79C1440.15 949.749 1440.21 949.688 1440.25 949.615C1440.3 949.541 1440.32 949.456 1440.32 949.37V890.37L1491.32 860.81C1491.4 860.769 1491.46 860.709 1491.5 860.635C1491.55 860.561 1491.57 860.477 1491.57 860.391V800.99C1491.57 800.903 1491.55 800.816 1491.51 800.741C1491.46 800.665 1491.4 800.602 1491.32 800.56L1440.32 771.06V712.171L1491.32 682.61C1491.4 682.569 1491.46 682.509 1491.5 682.435C1491.55 682.361 1491.57 682.277 1491.57 682.191V622.891C1491.57 622.803 1491.55 622.716 1491.51 622.641C1491.46 622.565 1491.4 622.503 1491.32 622.461L1440.32 592.961V534.07L1491.32 504.51C1491.4 504.469 1491.46 504.409 1491.5 504.335C1491.55 504.261 1491.57 504.176 1491.57 504.09V444.691C1491.57 444.603 1491.55 444.516 1491.51 444.441C1491.46 444.365 1491.4 444.302 1491.32 444.26L1440.32 414.76V355.87L1491.32 326.31C1491.4 326.269 1491.46 326.209 1491.5 326.135C1491.55 326.061 1491.57 325.976 1491.57 325.891V266.59C1491.57 266.503 1491.55 266.416 1491.51 266.341C1491.46 266.265 1491.4 266.202 1491.32 266.16L1440.32 236.66V177.66L1491.43 148.21ZM1444.43 292.931L1439.75 295.62L1389.29 266.51L1439.75 237.45L1490.17 266.59L1444.43 292.931ZM617.09 830.12L591.58 815.411L566.58 800.99L617.1 771.85L667.52 800.99L647.9 812.34L617.09 830.12ZM462.69 919.12L412.23 890.01L462.65 860.87L513.11 889.99L462.69 919.12ZM359.89 919.12L309.38 890.04L359.84 860.901L410.3 889.961L359.89 919.12ZM256.99 919.12L206.53 890.01L256.95 860.87L307.41 889.99L256.99 919.12ZM154.09 919.12L103.67 889.99L128.67 875.61L154.08 860.87L204.59 889.961L154.09 919.12ZM103.18 592.8V534.54L140.99 556.391L153.6 563.671V621.941L115.78 600.09L103.18 592.8ZM192.49 467.391L205.1 474.671V532.84L154.68 503.701V445.54L192.49 467.391ZM219.84 364.34L256.55 385.52V443.79L206.13 414.651V356.34L219.84 364.34ZM154.14 206.57L103.72 177.44L128.72 163.06L154.22 148.271L204.56 177.34L154.14 206.57ZM51.3401 206.57L0.840076 177.41L51.3001 148.25L76.7601 163.01L101.76 177.391L51.3401 206.57ZM976.65 -30.6996L932.65 -5.36951L926.12 -1.6095V-59.7795L951.12 -74.2096L976.62 -88.9196L976.65 -30.6996ZM1393.39 560.02L1388.39 562.87L1338.07 533.87L1388.39 504.73L1438.81 533.87L1393.39 560.02ZM1393.39 916.32L1388.39 919.171L1338.07 890.171L1388.39 861.03L1438.81 890.171L1393.39 916.32ZM1182.39 681.891L1131.87 710.99V652.921L1157.04 638.34L1182.3 623.77L1182.39 681.891ZM719.49 652.891V711.06L669.07 681.921V623.74L706.84 645.59L719.49 652.891ZM668.09 681.891L617.67 710.98V652.911L630.28 645.63L668.09 623.78V681.891ZM513.79 831.01V889.24L463.37 860.141V801.84L501.18 823.691L513.79 831.01ZM462.39 860.01L411.87 889.201V831.03L436.87 816.6L462.37 801.891L462.39 860.01ZM359.49 860.01L309.07 889.151V830.98L321.68 823.701L359.49 801.85V860.01ZM256.69 860.01L206.17 889.201V831.03L231.17 816.6L256.67 801.891L256.69 860.01ZM103.27 830.931L115.87 823.651L153.69 801.8V860.06L128.24 874.82L103.24 889.201L103.27 830.931ZM256.6 147.34L206.08 176.53V118.34L231.34 103.771L256.6 89.2004V147.34ZM1079.89 148.24L1130.26 177.35L1079.89 206.51L1029.38 177.43L1079.89 148.24ZM1182.74 148.24L1233.11 177.41L1182.69 206.54L1132.23 177.43L1182.74 148.24ZM1285.59 148.24L1336.01 177.38L1285.59 206.51L1235.08 177.43L1285.59 148.24ZM1311.34 103.79L1336.6 118.36V176.58L1286.08 147.391V89.2205L1311.34 103.79ZM411.34 830.11L380.48 812.34L360.84 800.99L411.26 771.85L461.84 800.99L436.84 815.411L411.34 830.11ZM308.54 830.11L277.68 812.34L258.07 801.01L308.49 771.87L358.91 801.01L336.21 814.12L308.54 830.11ZM205.64 830.11L174.78 812.34L155.17 801.01L205.59 771.87L256.11 801.01L231.11 815.431L205.64 830.11ZM205.64 117.51L170.84 97.4604L155.14 88.3905L205.56 59.2505L256.08 88.3905L230.84 102.95L205.64 117.51ZM102.74 117.41L72.4201 99.8905L52.2701 88.3405L74.9701 75.2205L102.69 59.2205L133.5 77.0304L153.11 88.3405L137.41 97.4104L102.74 117.41ZM51.8301 29.1604L64.4401 21.8805L102.25 0.0303955V58.3405L89.6401 65.6305L51.7801 87.4404L51.8301 29.1604ZM976.65 89.2205V147.34L926.13 176.53V118.34L951.39 103.771L976.65 89.2205ZM1439.35 176.53L1389.03 147.391V89.3405L1439.35 118.34V176.53ZM1387.95 147.391L1337.63 176.53V118.34L1387.95 89.3405V147.391ZM1387.95 563.661V621.931L1337.53 592.79V534.57L1351.73 542.76L1387.95 563.661ZM925.64 473.81L894.83 456.01L875.22 444.681L925.64 415.54L976.16 444.681L951.16 459.1L925.64 473.81ZM822.84 473.81L797.33 459.1L772.33 444.681L822.84 415.55L873.26 444.691L850.56 457.8L822.84 473.81ZM770.84 503.691L720.42 532.83V474.661L733.02 467.38L770.84 445.54V503.691ZM515.08 711.84L565.59 682.75L616.01 711.891L565.59 741.02L515.08 711.84ZM155.17 622.891L205.59 593.75L256.11 622.891L230.84 637.451L205.58 652.02L170.84 631.961L155.17 622.891ZM103.17 58.3004V0.0404053L140.98 21.8905L153.59 29.1704V87.4404L115.77 65.5905L103.17 58.3004ZM668.48 -29.8495L689.24 -17.8495L718.84 -0.659546L668.42 28.3405L648.08 16.6005L618.08 -0.689575L655.9 -22.5396L668.48 -29.8495ZM874.18 -29.8495L895.06 -17.7595L924.5 -0.759521L874.08 28.2405L853.74 16.5005L823.74 -0.789551L861.56 -22.6395L874.18 -29.8495ZM1235.07 711.84L1285.58 682.75L1336 711.891L1285.58 741.02L1235.07 711.84ZM565.07 681.901L514.65 710.901V652.83L527.25 645.55L565.07 623.701V681.901ZM309.47 355.59L359.89 326.451L410.18 355.57L359.86 384.57L355.18 381.88L309.47 355.59ZM256.47 29.1704V87.4404L206.08 58.3405V0.120483L219.79 8.0304L256.47 29.1704ZM154.55 29.1704L205.07 0.0804443V58.3405L154.55 87.4805V29.1704ZM257.45 29.1704L290.45 10.1704L307.86 0.17041V58.3405L257.44 87.4805L257.45 29.1704ZM578.16 -22.5596L616.01 -0.659546L570.54 25.5205L565.54 28.3705L560.54 25.5205L515.17 -0.659546L565.59 -29.7996L578.16 -22.5596ZM1387.87 325.6L1337.55 354.6V296.431L1387.87 267.43V325.6ZM1286.05 741.87L1336.47 712.74V770.901L1286.05 800.04V741.87ZM1336.57 652.87V711.09L1286.05 681.901V623.73L1311.34 638.34L1336.57 652.87ZM1182.66 562.82L1132.34 533.82L1182.76 504.681L1233.08 533.681L1195.26 555.53L1182.66 562.82ZM719.37 474.671V532.84L668.95 503.701V445.54L706.84 467.391L719.37 474.671ZM462.3 681.84L411.78 710.941V652.87L437.04 638.34L462.3 623.77V681.84ZM309.38 711.84L359.89 682.75L410.26 711.86L359.89 741.02L309.38 711.84ZM206.08 712.681L256.5 741.87V800.04L206.08 770.901V712.681ZM206.53 711.81L257.04 682.72L307.41 711.891L256.99 741.02L206.53 711.81ZM873.7 147.34L823.28 176.53V118.34L835.88 111.06L873.7 89.2104V147.34ZM925.1 236.49L874.58 265.63V207.34L925.1 178.151V236.49ZM1336.01 355.58L1290.54 381.76L1285.54 384.61L1280.54 381.76L1235.07 355.58L1285.49 326.441L1298.09 333.73L1336.01 355.58ZM1131.78 474.661L1156.78 460.23L1182.28 445.52V503.641L1131.76 532.83L1131.78 474.661ZM1234.19 473.81L1206.47 457.81L1183.77 444.701L1234.19 415.56L1284.61 444.701L1265 456.03L1234.19 473.81ZM1234.58 356.37L1285.1 385.461V443.73L1234.58 414.59V356.37ZM1233.58 356.421V414.59L1183.16 443.73V385.461L1217.44 365.72L1233.58 356.421ZM1182.18 385.421V443.691L1131.76 414.55V356.34L1145.96 364.53L1182.18 385.421ZM1080.36 385.421L1123.94 360.27L1130.84 356.34V414.56L1080.42 443.701L1080.36 385.421ZM1183.26 445.49L1221.07 467.34L1233.68 474.62V532.84L1183.26 503.651V445.49ZM1285.08 503.651L1234.66 532.79V474.62L1247.26 467.34L1285.08 445.49V503.651ZM1233.08 355.54L1182.66 384.54L1162.32 372.8L1132.32 355.51L1182.74 326.37L1203.6 338.451L1233.08 355.54ZM1130.18 355.54L1079.86 384.54L1075.18 381.85L1029.44 355.51L1079.86 326.37L1130.18 355.54ZM1028.84 356.34L1062.66 375.81L1079.36 385.431V443.701L1028.84 414.6V356.34ZM1285.55 562.78L1252.99 544.03L1235.13 533.75L1285.55 504.61L1335.97 533.61L1298.15 555.461L1285.55 562.78ZM359.4 681.901L308.98 710.901V652.83L321.59 645.55L359.4 623.701V681.901ZM257.58 623.74L295.4 645.59L308 652.87V711.09L257.58 681.901V623.74ZM258.07 622.891L308.49 593.75L358.91 622.891L338.84 634.5L308.52 652.02L273.8 631.961L258.07 622.891ZM360.38 385.47L403.96 360.34L410.84 356.34V414.56L360.42 443.701L360.38 385.47ZM719.38 414.6L668.84 443.74V385.47L719.4 356.34L719.38 414.6ZM360.84 444.691L411.26 415.55L461.84 444.691L436.84 459.11L411.33 473.82L380.52 456.02L360.84 444.691ZM411.75 296.47L442.46 278.82L462.27 267.43V325.55L411.75 354.641V296.47ZM463.75 88.3905L514.17 59.2505L564.59 88.3905L548.89 97.4604L514.17 117.521L483.84 100L463.75 88.3905ZM651.75 97.4604L617.03 117.521L591.84 102.95L566.58 88.3905L617.1 59.2505L667.52 88.3905L651.75 97.4604ZM754.55 97.4604L719.83 117.521L689.51 100L669.41 88.3905L719.83 59.2505L770.25 88.3905L754.55 97.4604ZM873.64 267.46V325.58L823.22 354.671V296.5L856.22 277.5L873.64 267.46ZM425.92 364.6L462.14 385.5V443.77L411.72 414.63V356.34L425.92 364.6ZM412.31 355.6L462.84 326.451L483.7 338.53L513.16 355.59L462.74 384.59L442.4 372.85L412.31 355.6ZM462.68 148.23L513.05 177.401L462.63 206.53L412.17 177.42L462.68 148.23ZM771.23 148.23L821.65 177.37L771.23 206.5L720.84 177.41L771.23 148.23ZM718.84 355.59L668.42 384.59L648.08 372.85L618.08 355.56L668.5 326.421L718.84 355.59ZM565.1 503.701L514.68 532.84V474.671L527.28 467.391L565.1 445.54V503.701ZM822.2 178.24V236.5L771.78 265.641V207.34L822.2 178.24ZM770.84 325.6L720.42 354.6V296.431L754.7 276.69L770.84 267.391V325.6ZM719.93 295.6L715.25 292.911L669.51 266.57L719.93 237.43L770.35 266.57L724.84 292.77L719.93 295.6ZM622.08 292.75L617.08 295.6L566.56 266.6L617.08 237.46L667.5 266.6L622.08 292.75ZM514.58 356.34L565.1 385.431V443.701L514.58 414.56V356.34ZM565.58 384.58L560.58 381.73L515.11 355.55L565.53 326.411L578.13 333.701L615.95 355.55L570.48 381.73L565.58 384.58ZM616.58 296.431V354.75L574.38 330.37L566.06 325.56V267.391L585.87 278.78L616.58 296.431ZM565.08 267.43V325.6L514.66 354.6V296.431L548.94 276.69L565.08 267.43ZM566.08 385.431L600.36 365.691L616.5 356.391V414.56L566.08 443.701V385.431ZM668 325.51L617.58 354.6V296.431L651.84 276.73L667.98 267.43L668 325.51ZM463.77 266.51L514.19 237.37L564.61 266.51L519.14 292.691L514.19 295.54L509.51 292.85L463.77 266.51ZM513.6 356.35V414.52L463.18 443.661V385.391L497.46 365.651L513.6 356.35ZM501.09 467.35L513.7 474.63V532.85L463.28 503.661V445.54L501.09 467.35ZM514.19 473.78L486.47 457.78L463.77 444.671L514.19 415.53L564.61 444.671L545 456L514.19 473.78ZM668.98 267.391L686.39 277.391L719.39 296.391V354.661L668.97 325.52L668.98 267.391ZM770.84 265.641L720.42 236.5V178.28L770.84 207.34V265.641ZM719.44 236.5L668.84 265.641V207.34L719.36 178.151L719.44 236.5ZM667.94 265.641L617.52 236.5V178.28L667.9 207.34L667.94 265.641ZM616.54 236.5L566.12 265.641V207.34L616.54 178.21V236.5ZM565.14 265.641L514.62 236.5V178.28L565.1 207.34L565.14 265.641ZM513.64 236.5L463.22 265.641V207.34L513.64 178.21V236.5ZM480.73 277.5L513.73 296.5V354.82L463.31 325.63V267.46L480.73 277.5ZM411.82 534.62L426.02 542.81L462.24 563.711V621.98L411.82 592.84V534.62ZM462.73 562.86L412.41 533.86L462.84 504.651L513.16 533.651L475.34 555.5L462.73 562.86ZM617.48 356.34L631.68 364.53L667.9 385.431V443.701L617.48 414.56V356.34ZM719.4 118.34V176.51L668.98 147.37V89.2405L706.84 111.09L719.4 118.34ZM668.4 148.19L718.84 177.34L668.37 206.5L617.96 177.42L668.4 148.19ZM616.6 118.34V176.56L566.08 147.37V89.2004L591.34 103.771L616.6 118.34ZM565.6 148.22L616.02 177.36L565.6 206.49L515.09 177.41L565.6 148.22ZM411.79 178.22L462.2 207.34V265.61L411.78 236.47L411.79 178.22ZM462.31 445.47V503.59L411.79 532.78V474.61L436.79 460.181L462.31 445.47ZM463.19 563.61L475.79 556.33L513.61 534.48V592.74L463.19 621.88V563.61ZM566.09 445.47L591.59 460.181L616.59 474.61V532.83L566.07 503.641L566.09 445.47ZM617.09 473.76L591.58 459.05L566.58 444.63L617.1 415.49L667.52 444.63L647.91 455.961L617.09 473.76ZM771.78 325.54V267.37L791.59 278.76L822.3 296.411V354.74L786.09 333.81L771.78 325.54ZM827.47 292.87L822.79 295.56L772.27 266.56L822.84 237.45L873.26 266.59L827.47 292.87ZM822.3 118.34V176.57L771.78 147.37V89.2004L797.04 103.771L822.3 118.34ZM770.84 89.2405V147.401L720.42 176.54V118.34L733.02 111.06L770.84 89.2405ZM668.04 89.2405V147.34L617.62 176.53V118.34L630.23 111.06L668.04 89.2405ZM565.14 89.2405V147.401L514.72 176.54V118.34L527.32 111.06L565.14 89.2405ZM513.7 118.34V176.56L463.28 147.37V89.2405L501.09 111.09L513.7 118.34ZM462.3 89.2004V147.34L411.78 176.53V118.34L437.04 103.771L462.3 89.2004ZM410.84 534.48V592.8L360.42 621.941V563.671L385.54 549.13L410.84 534.48ZM514.62 534.58L565.14 563.671V621.941L514.62 592.8V534.58ZM617.62 474.671L630.23 467.391L668.04 445.54V503.651L617.62 532.84V474.671ZM771.33 384.671L721.01 355.671L771.33 326.53L783.93 333.82L821.75 355.671L776.01 382.01L771.33 384.671ZM822.83 117.57L797.57 103L772.31 88.4404L822.84 59.2505L873.26 88.3905L853.16 100L822.83 117.57ZM360.84 88.3905L411.26 59.2505L461.84 88.3905L436.58 102.95L411.32 117.521L376.6 97.4604L360.84 88.3905ZM398.16 467.391L410.77 474.671V532.84L360.35 503.701V445.54L398.16 467.391ZM359.86 562.82L309.44 533.82L359.86 504.681L410.18 533.681L359.86 562.82ZM342.67 554.05L359.37 563.671V621.941L308.84 592.8V534.58L342.67 554.05ZM360.35 623.74L398.16 645.59L410.77 652.87V711.04L360.35 681.901V623.74ZM411.26 652.02L376.54 631.961L360.84 622.891L411.26 593.75L461.84 622.891L436.58 637.451L411.26 652.02ZM565.56 562.82L533 544.07L515.14 533.79L565.56 504.651L615.98 533.651L578.16 555.5L565.56 562.82ZM720.38 356.34L727.22 360.28L770.84 385.47V443.74L720.42 414.6L720.38 356.34ZM771.78 385.431L804.78 366.431L822.19 356.431V414.6L771.77 443.74L771.78 385.431ZM823.78 355.55L874.2 326.411L924.49 355.53L874.07 384.53L853.73 372.79L823.78 355.55ZM926.09 356.34L939.84 364.34L976.55 385.52V443.79L926.13 414.651L926.09 356.34ZM1027.42 355.55L977 384.55L956.55 372.75L926.68 355.52L977.1 326.38L997.96 338.461L1027.42 355.55ZM925.11 296.431V354.701L874.69 325.56V267.391L890.83 276.69L925.11 296.431ZM873.61 265.6L823.19 236.46V178.24L873.6 207.34L873.61 265.6ZM719.4 58.3405L668.84 87.4404V29.1704L719.36 0.0804443L719.4 58.3405ZM616.5 0.17041V58.3405L566.08 87.4805V29.2104L600.36 9.47046L616.5 0.17041ZM565.1 87.4805L514.58 58.3405V0.120483L565.1 29.2104V87.4805ZM360.38 89.2804L398.19 111.13L410.84 118.34V176.51L360.42 147.37L360.38 89.2804ZM410.84 236.5L360.42 265.641V207.34L410.84 178.18V236.5ZM360.84 266.59L411.26 237.45L461.84 266.59L411.32 295.59L406.37 292.74L360.84 266.59ZM411.75 712.681L462.17 741.87V800.04L411.75 770.901V712.681ZM463.25 623.74L501.06 645.59L513.67 652.87V711.09L463.25 681.901V623.74ZM514.16 652.02L483.84 634.5L463.74 622.891L514.16 593.75L564.58 622.891L548.88 631.961L514.16 652.02ZM566.05 563.671L578.66 556.391L616.47 534.54V592.8L566.05 621.941V563.671ZM823.18 356.34L830.02 360.28L873.6 385.431V443.701L823.18 414.56V356.34ZM874.58 385.431L925.1 356.34V414.56L874.58 443.701V385.431ZM977.48 385.431L1010.48 366.431L1027.89 356.431V414.6L977.47 443.74L977.48 385.431ZM1080.84 444.691L1131.26 415.55L1181.78 444.691L1156.78 459.11L1131.27 473.82L1100.46 456.02L1080.84 444.691ZM1234.55 534.58L1285.07 563.671V621.941L1234.55 592.8V534.58ZM1286.05 621.941V563.671L1298.66 556.391L1336.47 534.54V592.8L1286.05 621.941ZM1336.57 474.671V532.891L1286.05 503.701V445.53L1311.55 460.24L1336.57 474.671ZM1286.05 443.74V385.47L1320.33 365.73L1336.47 356.431V414.6L1286.05 443.74ZM1337.05 295.62L1286.53 266.62L1337.05 237.48L1387.46 266.57L1337.05 295.62ZM1336.56 296.47V354.79L1294.36 330.411L1286.04 325.6V267.43L1305.85 278.82L1336.56 296.47ZM1285.06 267.47V325.641L1234.64 354.641V296.47L1268.92 276.73L1285.06 267.47ZM1239.06 292.81L1234.06 295.661L1229.38 292.97L1183.64 266.63L1234.06 237.49L1284.48 266.63L1239.06 292.81ZM1233.62 296.51V354.83L1183.2 325.641V267.47L1200.61 277.47L1233.62 296.51ZM1182.22 267.51V325.63L1131.7 354.72V296.55L1162.41 278.901L1182.22 267.51ZM1131.22 295.701L1126.22 292.85L1080.84 266.59L1131.26 237.45L1181.78 266.59L1131.22 295.701ZM1130.73 296.55V354.82L1080.31 325.681V267.51L1096.45 276.81L1130.73 296.55ZM1079.33 267.55V325.72L1028.91 354.72V296.55L1061.91 277.55L1079.33 267.55ZM1033.1 293.05L1028.42 295.74L1023.42 292.891L977.95 266.71L1028.37 237.57L1078.79 266.71L1033.1 293.05ZM1027.93 296.59V354.911L1002.84 340.23L977.57 325.6V267.43L993.71 276.73L1027.93 296.59ZM976.53 267.59V325.711L926.01 354.8V296.63L956.84 278.82L976.53 267.59ZM925.53 295.78L920.53 292.931L875.06 266.75L925.48 237.61L976 266.75L925.53 295.78ZM874.03 206.68L823.62 177.6L874.08 148.38L924.56 177.34L874.03 206.68ZM873.54 29.3304V87.6005L823.18 58.3405V0.120483L830.02 4.06042L873.54 29.3304ZM822.14 0.330444V58.3405L771.72 87.4805V29.2104L804.72 10.2104L822.14 0.330444ZM770.74 29.3304V87.6005L720.38 58.3405V0.120483L727.22 4.06042L770.74 29.3304ZM667.84 29.3304V87.6005L617.48 58.3405V0.120483L631.68 8.31042L667.84 29.3304ZM513.54 0.330444V58.3405L463.12 87.4805V29.2104L497.4 9.47046L513.54 0.330444ZM462.14 29.3304V87.6005L411.78 58.3405V0.120483L425.98 8.31042L462.14 29.3304ZM410.84 0.0804443V58.3405L360.42 87.4805V29.2104L404 4.06042L410.84 0.0804443ZM359.44 29.1704V87.4404L308.84 58.3405V0.120483L342.66 19.5905L359.44 29.1704ZM359.93 148.25L410.26 177.34L359.89 206.5L309.38 177.42L359.93 148.25ZM308.93 178.25L359.4 207.34V265.61L308.84 236.5L308.93 178.25ZM376.57 276.7L410.84 296.47V354.74L360.42 325.6V267.43L376.57 276.7ZM359.4 445.54V503.701L308.98 532.84V474.671L321.59 467.391L359.4 445.54ZM307.9 534.54V592.8L257.48 621.941V563.671L270.09 556.391L307.9 534.54ZM256.6 623.73V681.85L206.08 710.941V652.87L231.34 638.34L256.6 623.73ZM257.48 741.87L307.9 712.74V770.901L257.48 800.04V741.87ZM308.88 712.681L359.4 741.87V800.04L308.84 770.901L308.88 712.681ZM360.38 741.87L410.84 712.681V770.901L360.42 800.04L360.38 741.87ZM412.23 711.81L462.74 682.72L513.11 711.891L462.69 741.02L412.23 711.81ZM617.48 534.58L631.68 542.77L667.9 563.671V621.941L617.48 592.8V534.58ZM668.39 562.82L618.07 533.82L668.49 504.681L718.81 533.681L680.99 555.53L668.39 562.82ZM719.89 473.82L692.17 457.82L669.47 444.711L719.89 415.57L770.31 444.711L750.7 456.04L719.89 473.82ZM1080.38 445.54L1118.19 467.391L1130.8 474.671V532.84L1080.38 503.701V445.54ZM1183.18 563.671L1195.78 556.391L1233.6 534.54V592.8L1183.18 621.941V563.671ZM1337.09 652.02L1311.84 637.451L1286.58 622.891L1337.1 593.75L1387.51 622.84L1337.09 652.02ZM1337.58 474.671L1387.9 445.671V503.73L1337.58 532.87V474.671ZM1337.09 473.82L1311.58 459.11L1286.58 444.691L1337.1 415.55L1387.51 444.74L1337.09 473.82ZM925.1 118.34V176.51L874.68 147.37V89.2405L912.49 111.09L925.1 118.34ZM925.1 58.2705L874.58 87.4104V29.1405L925.1 0.050415V58.2705ZM771.29 -29.8795L783.89 -22.5896L821.71 -0.659546L775.97 25.6804L771.29 28.3705L720.97 -0.629517L751.69 -18.4196L771.29 -29.8795ZM513.11 -0.659546L462.69 28.3405L442.35 16.6005L412.35 -0.689575L450.17 -22.5396L462.77 -29.8296L483.53 -17.8296L513.11 -0.659546ZM410.21 -0.659546L359.89 28.3405L355.21 25.6505L309.47 -0.659546L359.89 -29.7996L383.02 -16.4095L410.21 -0.659546ZM307.41 -0.659546L256.99 28.3405L236.54 16.5404L206.67 -0.659546L244.48 -22.5095L257.09 -29.7996L277.85 -17.7996L307.41 -0.659546ZM359.41 89.3405V147.5L308.99 176.641V118.34L321.6 111.06L359.41 89.3405ZM342.71 375.951L359.41 385.57V443.84L308.84 414.6V356.34L342.71 375.951ZM258.08 444.79L308.5 415.651L358.92 444.79L336.22 457.901L308.5 473.901L277.69 456.1L258.08 444.79ZM307.42 533.79L269.6 555.641L257 562.921L206.68 533.921L257.1 504.78L307.42 533.79ZM463.19 741.97L513.61 712.84V771L463.19 800.141V741.97ZM566.09 741.97L616.51 712.84V771L566.09 800.141V741.97ZM616.61 652.97V711.191L566.09 682V623.83L591.34 638.34L616.61 652.97ZM668.89 563.77L677.46 558.82L719.41 534.58V592.901L668.84 621.941L668.89 563.77ZM978.08 444.77L1028.5 415.63L1078.92 444.77L1056.22 457.88L1028.5 473.88L997.69 456.08L978.08 444.77ZM1028.99 474.77L1041.6 467.49L1079.41 445.641V503.8L1028.99 532.941V474.77ZM1131.79 534.681L1145.99 542.87L1182.21 563.77V622.04L1131.79 592.901V534.681ZM1285.11 623.84V682L1234.69 711V652.931L1247.29 645.651L1285.11 623.84ZM1234.59 712.78L1285.11 741.97V800.141L1234.59 771V712.78ZM1286.59 801.09L1337.11 771.951L1387.52 801.141L1337.11 830.22L1311.6 815.51L1286.59 801.09ZM1337.59 831.09L1387.91 802.09V860.26L1337.59 889.26V831.09ZM1387.91 800.161L1337.49 771.02V712.8L1387.91 741.99V800.161ZM1337.59 652.99L1387.91 623.86V682.02L1337.59 711.02V652.99ZM1337.49 356.5L1351.69 364.691L1387.91 385.59V443.86L1337.49 414.72V356.5ZM1387.91 265.76L1337.49 236.62V178.401L1387.91 207.49V265.76ZM1336.51 236.62L1286.09 265.76V207.34L1336.51 178.21V236.62ZM1285.11 265.76L1234.59 236.62V178.401L1285.11 207.49V265.76ZM1233.61 236.62L1183.19 265.76V207.34L1233.61 178.21V236.62ZM1182.21 265.76L1131.79 236.62V178.401L1182.21 207.49V265.76ZM1130.81 236.62L1080.39 265.76V207.34L1130.81 178.151V236.62ZM1079.41 265.76L1028.84 236.5V178.28L1079.36 207.37L1079.41 265.76ZM1027.91 236.62L977.49 265.76V207.34L1027.91 178.21V236.62ZM976.51 265.76L926.09 236.62V178.401L976.5 207.34L976.51 265.76ZM950.84 102.95L925.58 117.521L890.84 97.4604L875.14 88.3905L925.56 59.2505L976.08 88.3905L950.84 102.95ZM204.51 -0.659546L154.09 28.3405L141.48 21.0604L103.67 -0.789551L154.14 -29.8595L204.51 -0.659546ZM258.07 88.4404L308.49 59.3004L358.91 88.4404L338.84 100L308.52 117.521L273.8 97.4604L258.07 88.4404ZM359.4 267.44V325.61L308.98 354.61V296.441L341.98 277.44L359.4 267.44ZM295.4 467.441L308 474.72V532.941L257.58 503.75V445.54L295.4 467.441ZM219.84 542.49L256.55 563.671V621.941L206.13 592.8V534.58L219.84 542.49ZM154.73 623.74L192.54 645.59L205.15 652.87V711.04L154.73 681.901V623.74ZM205.15 770.901L154.63 800.04V741.87L205.15 712.681V770.901ZM514.63 712.681L565.15 741.87V800.04L514.63 770.901V712.681ZM617.14 652.02L591.84 637.451L566.58 622.891L617.1 593.75L667.52 622.891L651.82 631.961L617.14 652.02ZM771.83 445.53L797.33 460.24L822.33 474.671V532.901L771.81 503.701L771.83 445.53ZM823.33 474.671L835.93 467.391L873.75 445.54V503.651L823.33 532.84V474.671ZM874.73 445.54L912.54 467.391L925.15 474.671V532.84L874.73 503.701V445.54ZM926.13 474.671L951.13 460.24L976.63 445.53V503.651L926.11 532.84L926.13 474.671ZM977.63 445.54L1015.45 467.391L1028.05 474.671V532.891L977.63 503.701V445.54ZM1080.43 563.671L1105.55 549.13L1130.85 534.48V592.8L1080.43 621.941V563.671ZM1183.82 622.891L1234.24 593.75L1284.66 622.891L1268.96 631.961L1234.24 652.02L1203.84 634.5L1183.82 622.891ZM1286.13 801.83L1311.63 816.54L1336.63 830.97V889.201L1286.11 860.1L1286.13 801.83ZM1389.03 801.931L1439.35 830.931V889.1L1389.03 860.1V801.931ZM1388.93 741.87L1439.45 712.681V770.901L1388.84 800.04L1388.93 741.87ZM1388.44 741.02L1338.03 711.84L1388.49 682.72L1438.95 711.84L1388.44 741.02ZM1439.35 710.941L1389.03 681.941V623.74L1439.35 652.87V710.941ZM1389.03 445.641L1439.35 474.641V532.81L1389.03 503.671V445.641ZM1338.12 355.59L1388.44 326.59L1438.86 355.59L1388.44 384.59L1338.12 355.59ZM1389.03 267.43L1439.35 296.431V354.6L1389.03 325.6V267.43ZM1388.84 207.34L1439.36 178.25V236.47L1388.84 265.641V207.34ZM1388.35 206.49L1337.94 177.41L1388.4 148.19L1438.86 177.41L1388.35 206.49ZM976.95 206.49L926.49 177.38L977 148.19L1027.37 177.36L976.95 206.49ZM822.3 -59.8296V-1.59949L788.48 -21.0796L771.78 -30.6996V-88.9696L797.28 -74.2595L822.3 -59.8296ZM616.6 -59.8296V-1.59949L595.96 -13.4895L566.08 -30.6595V-88.9296L591.58 -74.2196L616.6 -59.8296ZM462.3 -88.9696V-30.7595L420.58 -6.75952L411.78 -1.68958V-59.8595L436.78 -74.2896L462.3 -88.9696ZM256.6 -88.9696V-30.7495L212.6 -5.41956L206.07 -1.65955V-59.8296L231.07 -74.2595L256.6 -88.9696ZM50.8001 -88.8695V-30.6595L16.5201 -10.9596L0.380077 -1.65955V-59.8296L34.6601 -79.5696L50.8001 -88.8695ZM0.970078 -0.659546L51.2901 -29.7996L101.71 -0.799561L63.8901 21.0404L51.2901 28.3405L18.7701 9.58044L0.970078 -0.659546ZM51.7801 89.1904L89.5901 111.04L102.2 118.32V176.59L77.2001 162.21L51.7401 147.45L51.7801 89.1904ZM103.18 118.32L115.78 111.04L153.6 89.1904V147.45L128.15 162.21L103.15 176.59L103.18 118.32ZM154.68 89.3204L192.49 111.17L205.1 118.45V176.62L154.68 147.48V89.3204ZM257.58 89.3204L295.4 111.17L308 118.45V176.67L257.58 147.48V89.3204ZM307.9 236.58L257.48 265.72V207.34L307.9 178.21V236.58ZM258.07 266.67L308.49 237.53L358.91 266.67L313.17 293.01L308.49 295.701L303.54 292.85L258.07 266.67ZM307.9 356.51V414.681L257.48 443.82V385.55L290.48 366.55L307.9 356.51ZM154.14 682.72L204.56 711.86L154.09 741.02L103.67 711.891L128.67 697.411L154.14 682.72ZM0.380077 712.72L50.8401 741.87V800.04L0.380077 770.901V712.72ZM51.2901 741.06L0.840076 711.81L51.3001 682.75L76.7501 697.411L101.75 711.891L51.2901 741.06ZM50.8401 623.74V681.901L0.420078 710.901V652.83L13.0201 645.55L50.8401 623.74ZM51.8401 800.04V741.87L102.26 712.74V770.901L89.6501 778.191L51.8401 800.04ZM103.24 770.901V712.74L153.66 741.87V800.04L115.84 778.191L103.24 770.901ZM154.74 801.84L192.55 823.691L205.16 830.97V889.141L154.74 860.141V801.84ZM257.64 801.84L295.46 823.691L308.06 830.97V889.201L257.64 860.1V801.84ZM360.44 801.84L398.25 823.691L410.86 830.97V889.141L360.44 860.141V801.84ZM667.96 800.04L617.54 770.901V712.681L667.96 741.87V800.04ZM770.84 563.671V621.941L720.42 592.8V534.58L727.26 538.52L770.84 563.671ZM1079.93 504.671L1130.25 533.671L1079.93 562.8L1029.51 533.8L1079.93 504.671ZM1183.32 623.76L1221.13 645.61L1233.74 652.891V711.11L1183.32 681.921V623.76ZM1233.64 770.921L1183.22 800.06V741.891L1233.64 712.76V770.921ZM1285.14 801.86V860.02L1234.72 889.161V830.99L1247.32 823.711L1285.14 801.86ZM1439.44 592.86L1388.84 621.941V563.671L1439.36 534.58L1439.44 592.86ZM1439.44 414.661L1388.84 443.74V385.47L1439.36 356.38L1439.44 414.661ZM1337.13 59.3104L1387.54 88.5005L1337.13 117.58L1311.84 102.95L1286.58 88.3905L1337.13 59.3104ZM1285.13 89.3104V147.47L1234.71 176.61V118.34L1247.31 111.06L1285.13 89.3104ZM1233.73 118.44V176.66L1183.31 147.47V89.2405L1221.12 111.09L1233.73 118.44ZM1182.33 89.3004V147.34L1131.81 176.53V118.34L1157.07 103.771L1182.33 89.3004ZM1130.84 118.34V176.51L1080.42 147.37V89.2405L1118.23 111.09L1130.84 118.34ZM1079.44 89.2104V147.37L1029.02 176.51V118.34L1041.63 111.06L1079.44 89.2104ZM1028.04 118.34V176.56L977.62 147.37V89.2405L1015.44 111.09L1028.04 118.34ZM925.14 -59.8595V-1.65955L896.69 -18.0396L874.69 -30.6996V-88.9596L912.5 -67.1095L925.14 -59.8595ZM873.74 -88.9895V-30.7795L843.21 -13.1696L823.28 -1.65955V-59.8296L835.88 -67.1095L873.74 -88.9895ZM770.84 -88.9895V-30.6595L736.56 -10.9196L720.42 -1.61951V-59.7896L733.02 -67.0696L770.84 -88.9895ZM719.44 -59.8595V-1.65955L690.09 -18.5696L668.98 -30.6595V-88.9596L706.84 -67.1095L719.44 -59.8595ZM668.04 -88.9895V-30.7795L624.84 -5.8396L617.6 -1.65955V-59.8296L630.21 -67.1095L668.04 -88.9895ZM565.14 -88.9895V-30.6595L530.84 -10.9596L514.7 -1.65955V-59.8296L527.3 -67.1095L565.14 -88.9895ZM513.74 -59.8595V-1.62952L499.54 -9.82959L463.28 -30.6595V-88.9596L501.09 -67.1095L513.74 -59.8595ZM410.84 -59.8595V-1.65955L382.39 -18.0396L360.39 -30.6996V-88.9596L398.2 -67.1095L410.84 -59.8595ZM359.44 -88.9895V-30.6595L326.44 -11.6595L309.03 -1.65955V-59.8296L321.64 -67.1095L359.44 -88.9895ZM308.04 -59.8595V-1.62952L301.2 -5.62952L257.58 -30.6595V-88.9596L295.4 -67.1095L308.04 -59.8595ZM205.14 -59.8595V-1.65955L176.69 -18.0396L154.69 -30.6996V-88.9596L192.5 -67.1095L205.14 -59.8595ZM153.64 -88.9895V-30.6595L119.36 -10.9196L103.22 -1.61951V-59.7896L115.82 -67.0696L153.64 -88.9895ZM102.24 -59.8595V-1.65955L84.8401 -11.6595L51.8401 -30.6595V-88.9596L89.6501 -67.1095L102.24 -59.8595ZM7.24008 3.99048L50.8401 29.1704V87.4404L0.380077 58.3405V0.120483L7.24008 3.99048ZM50.8401 89.2405V147.401L0.380077 176.54V118.34L12.9801 111.06L50.8401 89.2405ZM257.08 148.24L307.45 177.41L257.03 206.54L206.57 177.43L257.08 148.24ZM257.62 325.62V267.45L273.76 276.75L308.04 296.49V354.81L282.84 340.23L257.62 325.62ZM256.62 445.55V503.671L206.1 532.86V474.691L231.1 460.26L256.62 445.55ZM205.12 534.5V592.82L154.6 621.961V563.691L163.17 558.74L205.12 534.5ZM153.62 623.661V681.921L128.16 696.58L103.16 711.06V652.79L115.76 645.51L153.62 623.661ZM102.22 652.79V711.06L77.2201 696.58L51.7701 681.921V623.641L89.5801 645.49L102.22 652.79ZM52.2701 800.891L74.9701 787.77L102.69 771.77L133.5 789.58L153.11 800.911L137.41 809.98L102.69 830.04L72.3701 812.52L52.2701 800.891ZM514.19 830.12L486.47 814.12L463.77 801.01L514.19 771.87L564.61 801.01L545 812.34L514.19 830.12ZM668.39 741.02L617.98 711.84L668.44 682.72L718.84 711.86L668.39 741.02ZM719.89 652.02L689.57 634.5L669.47 622.891L719.89 593.75L770.31 622.891L754.61 631.961L719.89 652.02ZM771.29 562.82L738.77 544.06L720.97 533.79L771.29 504.651L821.71 533.651L783.89 555.5L771.29 562.82ZM874.09 562.82L823.77 533.82L874.19 504.681L924.51 533.681L886.69 555.53L874.09 562.82ZM976.99 562.82L926.67 533.82L977.09 504.681L1027.41 533.681L989.59 555.53L976.99 562.82ZM1080.84 622.891L1131.26 593.75L1181.78 622.891L1156.52 637.451L1131.26 652.02L1096.54 631.961L1080.84 622.891ZM1182.71 682.72L1233.08 711.891L1182.66 741.02L1132.2 711.81L1182.71 682.72ZM1183.71 800.99L1234.13 771.85L1284.55 800.99L1265 812.34L1234.19 830.141L1206.47 814.141L1183.71 800.99ZM1285.53 919.12L1253.03 900.34L1235.17 890.06L1285.59 860.921L1317.92 879.54L1336.01 889.961L1298.19 911.81L1285.53 919.12ZM1440.22 176.6V118.34L1452.82 111.06L1490.64 89.2104V147.47L1440.22 176.6ZM1470.05 100L1439.84 117.521L1389.38 88.4104L1439.84 59.2505L1490.26 88.3905L1470.05 100ZM1439.34 58.3004L1388.84 87.4404V29.1704L1439.36 0.0804443L1439.34 58.3004ZM1337.42 0.0804443L1387.84 29.1704V87.4404L1337.48 58.3405L1337.42 0.0804443ZM1234.13 59.2505L1284.55 88.3905L1268.85 97.4604L1234.13 117.521L1203.84 100L1183.74 88.3905L1234.13 59.2505ZM1131.23 59.2505L1181.75 88.3905L1156.49 102.95L1131.23 117.521L1096.51 97.4604L1080.81 88.3905L1131.23 59.2505ZM1028.43 59.2505L1078.85 88.3905L1058.75 100L1028.43 117.521L993.71 97.4604L978.01 88.3905L1028.43 59.2505ZM976.43 87.4404L926.08 58.3405V0.120483L976.5 29.2104L976.43 87.4404ZM925.52 -118.849L976.04 -89.8495L925.59 -60.6595L912.98 -67.9396L875.17 -89.7896L925.52 -118.849ZM822.72 -118.849L873.14 -89.8495L835.32 -67.9995L822.84 -60.6595L772.32 -89.7896L822.72 -118.849ZM719.82 -118.849L770.24 -89.8495L732.42 -67.9995L719.82 -60.7196L707.22 -67.9995L669.4 -89.8495L719.82 -118.849ZM617.02 -118.849L667.44 -89.8495L629.62 -67.9995L617.02 -60.7196L566.5 -89.8495L617.02 -118.849ZM514.12 -118.849L564.54 -89.8495L526.84 -67.9596L514.24 -60.6796L501.64 -67.9596L463.82 -89.8096L514.12 -118.849ZM411.22 -118.849L461.74 -89.8495L411.29 -60.6595L398.69 -67.9396L360.84 -89.8096L411.22 -118.849ZM308.42 -118.849L358.84 -89.8495L321.02 -67.9995L308.42 -60.7196L295.82 -67.9995L258 -89.8495L308.42 -118.849ZM205.52 -118.849L256.04 -89.8495L205.59 -60.6595L192.98 -67.9396L155.17 -89.7896L205.52 -118.849ZM102.62 -118.95L153.04 -89.8096L133.43 -78.4795L102.69 -60.6595L74.9701 -76.6595L52.2701 -89.7695L102.62 -118.95ZM-0.17992 -118.849L50.3201 -89.7595L-0.109921 -60.6595L-12.7099 -67.9396L-50.5299 -89.7896L-0.17992 -118.849ZM-51.0899 -88.9596L-13.1599 -67.1095L-0.549923 -59.8296V-1.55957L-51.0199 -30.6595L-51.0899 -88.9596ZM-0.109921 59.2505L50.3101 88.3905L34.6101 97.4604L-0.109921 117.521L-30.4299 100L-50.5299 88.3905L-0.109921 59.2505ZM-51.0199 89.2505L-13.1599 111.09L-0.599922 118.34V176.51L-51.0199 147.51V89.2505ZM0.380077 178.25L50.8401 207.34V265.61L0.380077 236.5V178.25ZM51.7801 207.34L102.2 178.21V236.47L51.7801 265.641V207.34ZM103.18 178.21L153.6 207.34V265.61L103.18 236.47V178.21ZM154.58 207.34L205.1 178.151V236.47L154.58 265.61V207.34ZM206.08 178.25L256.5 207.34V265.61L206.08 236.47V178.25ZM257.08 326.421L277.94 338.5L307.4 355.56L256.98 384.56L236.53 372.76L206.66 355.53L257.08 326.421ZM205.58 415.52L256.1 444.661L231.1 459.08L205.59 473.79L174.78 455.99L155.17 444.661L205.58 415.52ZM154.04 504.52L204.5 533.641L166.68 555.49L154.08 562.77L123.27 544.97L103.66 533.641L154.04 504.52ZM102.68 593.6L133.49 611.411L153.1 622.74L137.4 631.81L102.68 651.87L72.3601 634.35L52.2601 622.74L102.68 593.6ZM-0.119923 593.701L50.3901 622.79L-0.109921 652.02L-30.4299 634.5L-50.5299 622.891L-0.119923 593.701ZM-51.0299 623.701L-13.1599 645.59L-0.549923 652.87V711.04L-50.9699 681.901L-51.0299 623.701ZM-0.109921 771.85L50.3101 800.99L30.7001 812.34L-0.109921 830.12L-27.8299 814.12L-50.5299 801.01L-0.109921 771.85ZM-51.0199 801.85L-13.1599 823.691L-0.549923 830.97V889.24L-50.9699 860.1L-51.0199 801.85ZM0.380077 830.98L12.9801 823.701L50.8401 801.84V860L0.380077 889.141V830.98ZM51.7801 801.75L89.5901 823.6L102.2 830.88V889.151L51.7801 860.151V801.75ZM103.18 890.85L153.6 919.98V978.25L103.18 949.11V890.85ZM154.58 919.98L205.1 890.79V949.11L154.58 978.25V919.98ZM206.08 890.891L256.5 919.98V978.25L206.08 949.11V890.891ZM257.48 919.98L307.9 890.85V949.11L257.48 978.25V919.98ZM308.88 890.891L359.4 919.98V978.25L308.84 949.1L308.88 890.891ZM360.38 919.98L410.84 890.78V949.1L360.42 978.24L360.38 919.98ZM411.78 890.891L462.2 919.98V978.25L411.78 949.11V890.891ZM513.6 949.11L463.18 978.25V919.98L513.6 890.85V949.11ZM514.68 830.98L527.28 823.701L565.1 801.85V860.01L514.68 889.151V830.98ZM566.08 801.84L591.58 816.55L616.58 830.98V889.211L566.06 860.11L566.08 801.84ZM617.58 889.151V830.98L630.19 823.701L668 801.85V859.961L617.58 889.151ZM719.4 770.911L668.84 800.04V741.87L719.36 712.681L719.4 770.911ZM720.4 710.911V652.84L733 645.56L770.84 623.74V681.901L720.4 710.911ZM771.8 563.641L784.4 556.36L822.22 534.51V592.77L771.8 621.911V563.641ZM823.2 534.55L830.04 538.49L873.62 563.641V621.911L823.2 592.77V534.55ZM874.6 563.641L883.17 558.691L925.17 534.451V592.77L874.65 621.911L874.6 563.641ZM926.1 534.55L939.81 542.461L976.52 563.641V621.911L926.1 592.77V534.55ZM977.5 563.641L990.11 556.36L1027.92 534.51V592.77L977.5 621.911V563.641ZM1028.9 534.55L1062.72 554.02L1079.42 563.641V621.911L1028.84 592.8L1028.9 534.55ZM1080.4 623.711L1118.21 645.56L1130.82 652.84V711.01L1080.4 681.87V623.711ZM1131.8 712.651L1182.22 741.84V800.01L1131.8 770.87V712.651ZM1183.3 801.81L1221.11 823.661L1233.72 830.941V889.171L1183.3 860.07V801.81ZM1234.6 890.81L1285.12 919.901V978.171L1234.6 949.03V890.81ZM1286.1 919.901L1298.71 912.62L1336.52 890.77V949.03L1286.1 978.171V919.901ZM1337.5 890.81L1351.7 899L1387.92 919.901V978.171L1337.5 949.03V890.81ZM1439.42 949.03L1388.84 978.24V919.97L1439.36 890.88L1439.42 949.03ZM1440.3 889.22V830.901L1452.9 823.62L1490.72 801.77V860.03L1440.3 889.22ZM1467.53 814.03L1439.81 830.03L1389.35 800.921L1439.81 771.76L1490.23 800.901L1467.53 814.03ZM1440.3 711.03V652.81L1452.9 645.53L1490.72 623.681V681.84L1440.3 711.03ZM1470.13 634.441L1439.84 652.02L1389.38 622.81L1439.84 593.75L1490.26 622.891L1470.13 634.441ZM1440.3 532.931V474.61L1452.9 467.33L1490.72 445.48V503.74L1440.3 532.931ZM1467.53 457.74L1439.81 473.74L1389.35 444.63L1439.81 415.47L1490.23 444.61L1467.53 457.74ZM1440.3 354.74V296.421L1473.3 277.42L1490.71 267.42V325.59L1440.3 354.74Z" fill="url(#paint0_linear_1599_6046)"/>
<defs>
<linearGradient id="paint0_linear_1599_6046" x1="1107.59" y1="98.6703" x2="179.296" y2="540.637" gradientUnits="userSpaceOnUse">
<stop stop-color="#00CDC5"/>
<stop offset="1" stop-color="#8F81F9"/>
</linearGradient>
</defs>
</svg>
